<svg xmlns="http://www.w3.org/2000/svg" xml:space="preserve" width="655.359" height="655.359" style="shape-rendering:geometricPrecision;text-rendering:geometricPrecision;image-rendering:optimizeQuality;fill-rule:evenodd;clip-rule:evenodd" viewBox="0 0 6.827 6.827"><defs><clipPath id="id0"><path d="M3.413 0a3.413 3.413 0 1 1 0 6.827 3.413 3.413 0 0 1 0-6.827z"/></clipPath><style>.fil6{fill:#424242}.fil12{fill:#757575}.fil8{fill:#c4a291}.fil9{fill:#cfd8dc}.fil1{fill:#e65100}.fil3{fill:#fdc}.fil16{fill:#3e2723;fill-rule:nonzero}</style></defs><g id="Layer_x0020_1"><path d="M3.413 0a3.413 3.413 0 1 1 0 6.827 3.413 3.413 0 0 1 0-6.827z" style="fill:#f57c00"/><g style="clip-path:url(#id0)"><g id="_435563272"><path id="_4364668241" class="fil1" d="M6.114 7.723zM2.327 3.936z"/><path id="_436466920" class="fil1" d="M6.24 7.952zM2.456 4.166z"/><path id="_436469920" class="fil1" d="m3.164 2.025 3.787 3.787-3.786-3.786z"/><path id="_436469584" class="fil1" d="M3.165 2.026 6.95 5.812H6.95L3.163 2.026h.001z"/><path id="_436469704" class="fil1" d="m4.426 1.913 3.786 3.786.001.003V5.79L4.427 2.006V1.915z"/><path id="_436469656" class="fil1" d="M4.515 1.954 8.3 5.74l.005.006.004.006.003.007.002.007.002.007v.02l-.002.004V5.8l-.002.004-.002.004-.002.003-3.786-3.786.002-.004.002-.004v-.003l.002-.005.001-.004v-.004l.001-.004v-.012l-.002-.007-.002-.007-.004-.006-.003-.006z"/><path id="_436470016" class="fil1" d="m4.596 2.05 3.787 3.786.004.006.003.005.003.007.003.006.002.007v.007l.001.007V5.89l-.001.004v.004l-.002.004-.001.004-.002.003-.002.004-3.786-3.786.002-.004.001-.004.002-.004v-.003l.002-.005v-.026l-.002-.007-.003-.007-.003-.006-.004-.006z"/><path id="_436470064" class="fil1" d="M4.666 2.152 8.452 5.94l.004.005.004.006.003.006.003.007.001.006.001.007v.02L8.467 6l-.001.004-.002.004-.001.004-.002.004-3.786-3.787.002-.003.001-.004.001-.004.002-.004V2.21l.001-.004v-.023l-.003-.007-.002-.006-.003-.006-.004-.006z"/><path id="_436470136" class="fil1" d="M4.296 1.893 8.082 5.68l.005.006.004.006.004.006.003.006.002.005.002.005v.007L4.316 1.934v-.008l-.002-.004-.002-.006-.003-.005-.004-.006-.004-.006z"/><path id="_436470328" class="fil1" d="M4.173 1.845 7.96 5.632l.004.005.003.005.004.006.002.006.002.006.001.007L4.19 1.88l-.001-.007-.002-.006-.003-.006-.003-.006-.003-.006z"/><path id="_436470760" class="fil1" d="m4.766 2.453 3.786 3.786.001.003-3.786-3.786z"/><path id="_436470712" class="fil1" d="m4.736 2.255 3.786 3.786.004.006.004.006.003.006.002.006.002.007.001.007V6.1l-.001.003v.003l-.002.003v.003l-.002.002-.001.003-.001.003-.002.002-.002.003-.001.002-.002.003-.002.002-3.786-3.786.002-.003.002-.002.001-.002.002-.003.001-.003.002-.002v-.003l.002-.003v-.003l.002-.003v-.002l.001-.003v-.004l.001-.003V2.293l-.001-.007-.002-.007-.002-.006-.004-.007-.003-.005z"/><path id="_436470688" class="fil1" d="m4.8 2.556 3.786 3.787v.004l.001.001v.002l.001.001v.003L4.804 2.568v-.002l-.001-.001v-.002H4.8v-.004L4.8 2.558z"/><path id="_436470280" class="fil1" d="m4.044 1.823 3.787 3.786.003.004.004.005.002.005.003.005.002.005-3.786-3.786-.002-.005-.003-.005-.003-.005-.003-.005z"/><path id="_436470424" class="fil1" d="m3.912 1.816 3.786 3.786.003.004.003.004.002.004.003.004.002.004-3.786-3.786-.002-.005-.003-.004-.003-.004-.002-.003z"/><path id="_436470496" class="fil1" d="m3.752 1.82 3.786 3.787.003.003.003.004.003.004.002.004-3.786-3.786-.002-.004-.003-.004-.003-.004z"/><path id="_436470640" class="fil1" d="m4.836 2.915 3.786 3.787-.001.013-3.786-3.787z"/><path id="_436470520" class="fil1" d="M4.835 2.928 8.62 6.715l.003.004.003.005.003.005.002.005.002.006v.006l.002.005v.015l-.001.004-.001.004-.001.003-.001.004-.002.004-.001.003-.002.004-.002.003-.003.003-.002.003-.003.003-.002.003-.003.003-.003.002-3.786-3.786.003-.002.002-.003.003-.003.003-.003.002-.003.002-.003.002-.003.002-.004L4.844 3l.001-.004.002-.004v-.004l.001-.004.001-.004v-.02l-.002-.005-.001-.006-.002-.005-.003-.005-.003-.005z"/><path id="_436470808" class="fil1" d="M3.624 1.84 7.41 5.628l.003.003.002.003L3.63 1.847l-.003-.003z"/><path id="_436470232" class="fil1" d="m4.82 3.038 3.787 3.787.002.002.002.002.001.003.002.002v.003l.002.002.001.003.001.003.001.003.001.002v.003l.001.003v.003l.001.003v.019l-.002.004v.004l-.002.004-.002.004-.002.004-.002.003-.002.004-.002.003-.003.003-.003.003-.003.003-.003.003-.003.002L4.806 3.14l.004-.002.003-.003.003-.003.003-.003.002-.003.003-.003.002-.004.002-.004.002-.003.002-.004v-.004l.002-.004.001-.004V3.09l.001-.005V3.07l-.001-.003-.001-.003v-.003l-.002-.002v-.003l-.002-.003-.001-.002-.002-.003-.001-.002-.002-.003-.001-.002z"/><path id="_436471240" class="fil1" d="m4.806 3.14 3.787 3.785-.001.008-3.787-3.786z"/><path id="_436471168" class="fil1" d="m4.805 3.147 3.787 3.786.002.003.002.002.001.002.002.003.002.003.001.003.001.002.001.003.002.003v.003l.001.003v.003l.001.003v.004l.001.003v.015l-.002.004v.004l-.002.003-.001.004-.002.003-.002.004-.001.003-.003.003-.002.003-.002.003-.003.003-.003.002-.002.003-3.787-3.786.003-.003.003-.002.002-.003.003-.003.002-.003.002-.003.002-.004.002-.003.002-.003v-.004l.002-.004.001-.003v-.004l.001-.004V3.18l-.001-.003v-.003l-.002-.003v-.003l-.002-.003-.001-.003-.002-.003-.001-.002-.002-.003-.002-.002-.002-.003z"/><path id="_436471144" class="fil1" d="m4.8 3.25 3.786 3.785.002.003.002.003.002.002.002.003.001.003.002.003.001.003.002.003v.003l.002.004v.003l.001.003v.023l-.001.004-.001.003-.001.004-.002.004-.001.003-.002.003-.002.004-.002.003-.002.003-.003.003-.002.003-.003.002-.003.003L4.792 3.35l.003-.003.003-.003.002-.002.003-.003.002-.003.002-.003.002-.004.002-.003.001-.004.002-.003v-.004l.002-.004v-.003l.001-.004v-.022l-.002-.004v-.003l-.002-.003v-.003l-.002-.003-.002-.003-.001-.003-.002-.003-.002-.003-.002-.002z"/><path id="_436471576" class="fil1" d="m4.794 3.352 3.787 3.786.002.003.002.002.002.003.001.003.002.003.002.003.001.003.001.003.001.003.001.004.001.003v.003l.001.004v.018l-.001.004-.001.004-.001.003-.002.004-.001.003-.002.003-.001.003-.002.003-.002.003-.003.003-.002.003-.003.003-.002.002-3.787-3.786.003-.003.003-.002.002-.003.002-.003.002-.003.002-.003.002-.003.002-.003.001-.004.002-.003v-.004l.002-.003v-.008l.001-.004v-.014l-.001-.003-.001-.004v-.003l-.002-.003-.001-.003-.002-.003-.001-.003-.002-.003L4.8 3.36l-.002-.003-.002-.002z"/><path id="_436471408" class="fil1" d="m4.788 3.45 3.787 3.787v.004L4.788 3.454z"/><path id="_436471120" class="fil1" d="m4.788 3.454 3.787 3.787.002.002.002.002.002.003.001.003.002.002.002.003v.003l.002.003.001.003.001.003.001.003v.003l.001.004v.003l.001.003V7.297l-.001.003v.003l-.001.003-.001.003-.001.003-.001.003-.002.002-.001.003-.001.003-.002.002-.002.003-.002.002-.001.003L4.79 3.546l.002-.002.002-.002.002-.003.001-.003.002-.002.001-.003.001-.003.001-.002.001-.003.001-.003.001-.003v-.003l.001-.003v-.023l-.001-.003-.001-.003-.001-.003-.001-.003-.001-.003-.002-.003-.001-.003-.002-.003-.002-.002-.002-.003-.002-.002z"/><path id="_436471528" class="fil1" d="m4.799 3.554 3.786 3.787.003.002.002.004.002.003.002.003.002.003.002.004.001.004.001.003.001.004.001.004v.004l.001.004V7.4l-.002.003v.004l-.002.003v.004l-.002.003-.002.003-.002.004-.002.003-.002.003-.002.003-.002.002-.003.003-.003.002-3.786-3.786.003-.002.002-.003.003-.003.002-.003.002-.003.002-.003.002-.003.001-.003.002-.003.001-.004.001-.003.001-.004v-.004l.001-.003v-.02l-.001-.004-.001-.004-.001-.004-.002-.003-.001-.004-.002-.003-.002-.004-.002-.003-.003-.003z"/><path id="_436471504" class="fil1" d="M3.163 2.026 6.95 5.812l-.001.002-.001.003v.004l-.001.004v.005l-.001.006-.001.005v.005L3.158 2.06v-.005l.001-.006v-.005l.001-.005.001-.005V2.03l.001-.003z"/><path id="_436471552" class="fil1" d="M4.795 3.677 8.58 7.464l.002.002.002.002.002.003.001.003.002.002.002.003.001.003.001.003.001.003.001.003.001.003v.003l.001.004v.003l.001.003v.015l-.002.003v.004l-.002.004v.003l-.002.003-3.786-3.786.001-.003.001-.004.001-.003.001-.004v-.003l.001-.004V3.71l-.001-.003v-.003l-.002-.003-.001-.003-.001-.003-.002-.003-.001-.003-.002-.003-.002-.002-.001-.003-.002-.002z"/><path id="_436471048" class="fil1" d="m4.816 3.761 3.786 3.786.003.003.003.004.002.003.002.003.002.004.002.004.002.003.001.004.001.004.001.004v.005l.001.004V7.606l-.001.004-.001.005-.002.004-.001.004-.002.004-.002.004-3.787-3.786.003-.004.001-.004.002-.004.001-.005.002-.004V3.815l.001-.005V3.8l-.001-.004-.001-.004-.001-.004-.002-.004-.001-.004-.002-.003-.002-.004-.002-.003-.003-.004-.002-.003z"/><path id="_436471912" class="fil1" d="m4.836 3.853 3.786 3.786.003.003.002.003.003.004.002.003.002.004.002.003.001.004.002.004.001.004v.004l.002.004v.02l-.002.005-.001.006-.002.005-.003.004-.002.005-.003.004-3.786-3.786.003-.004.002-.005.002-.005.002-.005.002-.005v-.005l.002-.006v-.014l-.001-.004-.001-.004-.001-.004-.002-.004-.001-.004-.002-.004-.002-.003-.002-.004-.003-.003-.002-.003z"/><path id="_436471888" class="fil1" d="m4.843 3.942 3.786 3.786v.001L4.843 3.943z"/><path id="_436472104" class="fil1" d="m4.848 3.948 3.787 3.786.002.003.002.003.003.003.002.003.001.004.002.003.002.003.001.004.001.003.001.004v.004l.001.004V7.798l-.002.005-.002.005-.002.004-.002.005-.003.004-3.786-3.786.002-.004.003-.005.002-.004.001-.005.002-.005v-.005l.001-.005v-.017l-.001-.004-.001-.004-.001-.003-.002-.004-.001-.003-.002-.004-.002-.003-.002-.003-.002-.003-.002-.003z"/><path id="_436471744" class="fil1" d="M4.856 4.035 8.642 7.82v.004L4.857 4.04z"/><path id="_436471720" class="fil1" d="m4.859 4.041 3.786 3.787.003.002.002.003.002.003.002.003.002.003.002.003.001.003.002.004.001.003.001.004.001.003v.004l.001.003V7.885L4.88 4.1v-.021l-.001-.003-.001-.004-.001-.003-.001-.004-.002-.003-.001-.003-.002-.003-.002-.003-.002-.003-.002-.003-.003-.003z"/><path id="_436471936" class="fil1" d="m5.04 4.222 3.786 3.786.01.012.01.014.01.015.01.017.01.018.009.019.009.02.009.022.008.023.009.023.008.025.008.025.008.027.007.027.008.028.007.029.007.029.007.03.007.03.007.03.007.031.007.031.006.032.007.031.006.032.007.032.006.032.007.031.006.032.007.03.006.032L5.28 5.03 5.274 5l-.007-.032-.006-.031-.007-.032-.006-.031-.007-.032-.006-.032-.007-.031-.007-.032-.006-.031-.007-.031-.007-.03-.007-.03-.007-.03-.007-.03-.008-.028-.007-.028-.008-.027-.008-.027-.008-.025-.008-.025-.008-.024-.009-.022-.008-.022-.01-.02-.009-.02-.009-.017-.01-.017-.01-.015-.01-.014z"/><path id="_436472008" class="fil1" d="m2.881 3.14 3.787 3.785-.004-.002-.003-.003-.003-.003-3.786-3.786.003.003.003.003z"/><path id="_436472200" class="fil1" d="m2.89 3.247 3.787 3.786-.003-.003-.003-.002-3.786-3.786.003.002z"/><path id="_436472392" class="fil1" d="M2.895 3.653 6.68 7.44l-.003-.002-3.786-3.786z"/><path id="_436472344" class="fil1" d="m4.236 5.03 3.786 3.787h-.085L4.15 5.03z"/><path id="_436472992" class="fil1" d="m4.15 5.03 3.787 3.787h-.148L4.003 5.03z"/><path id="_436472968" class="fil1" d="m4.003 5.03 3.786 3.787H7.78L3.994 5.03z"/><path id="_436472848" class="fil1" d="M3.994 5.03 7.78 8.817h-.064L3.93 5.03z"/><path id="_436472752" class="fil1" d="m3.93 5.03 3.786 3.787h-.102L3.828 5.03z"/><path id="_436473040" class="fil1" d="m3.828 5.03 3.786 3.787h-.166L3.662 5.03z"/><path id="_436473136" class="fil1" d="m3.662 5.03 3.786 3.787h-.01L3.652 5.03z"/><path id="_436473208" class="fil1" d="m3.652 5.03 3.786 3.787h-.092L3.56 5.03z"/><path id="_436472632" class="fil1" d="m2.4 3.976 3.786 3.786.006.007.007.006.005.007.006.007.005.007.005.008.005.007-3.787-3.786-.004-.008-.005-.007-.005-.007-.006-.007-.006-.007-.006-.007z"/><path id="_436472920" class="fil1" d="m2.438 4.025 3.787 3.786.002.004.002.004.002.004.002.004.001.004.002.005.001.004.002.004.001.004.001.005.002.004v.004l.002.005v.004l.001.005v.004l.001.005V7.893l.001.004V7.92l-.001.005-.001.004v.005l-.002.005v.004l-.002.005-.001.004-3.786-3.786v-.004l.002-.005.001-.005v-.004l.002-.005V4.134l.001-.005V4.093l-.001-.005v-.004l-.002-.005v-.004l-.002-.004v-.005l-.002-.004-.001-.004-.002-.005-.001-.004-.002-.004-.002-.004-.002-.004-.002-.004-.002-.004z"/><path id="_436472488" class="fil1" d="M2.329 4.323 6.115 8.11l-.05-.015L2.279 4.31z"/><path id="_436473184" class="fil1" d="M2.462 4.622 6.25 8.41l-.254-.07L2.21 4.551z"/><path id="_433980944" class="fil1" d="m1.827 4.18 3.786 3.786-.05-.015-3.787-3.786z"/><path id="_433980896" class="fil1" d="M1.776 4.165 5.563 7.95l-.075-.021-3.786-3.786z"/><path id="_433980920" class="fil1" d="m2.285 4.757 3.786 3.787-.03.104-3.786-3.786z"/><path id="_433981256" class="fil1" d="m2.255 4.862 3.786 3.786-.002.009-.004.009-.003.008-.005.009-.004.008-.005.008-.005.007-.006.007-.005.007-.007.007-.006.006-.007.006-.007.005-.007.006-.008.004-.007.005-3.786-3.786.007-.005.008-.005.007-.005.007-.005.007-.006.006-.007.006-.006.006-.007.006-.007.005-.008.005-.007.004-.009.004-.008.004-.008.003-.01z"/><path id="_433980656" class="fil1" d="m2.209 4.552 3.786 3.786-.027.096-3.786-3.787z"/><path id="_433980992" class="fil1" d="m2.167 4.973 3.786 3.786-.004.002-.004.002-.004.002-.004.002-.004.002-.004.001-.005.002-.004.001-.004.002h-.004l-.005.002-.004.001h-.005l-.004.002H5.89l-.005.001H5.876l-.005.001H5.844l-.005-.001h-.004l-.005-.002h-.005l-.004-.001-.005-.002h-.004L2.025 4.988l.005.001.005.001.004.001.005.001.004.001h.005l.005.001H2.067l.004.001h.023l.005-.001h.004l.005-.002h.004l.005-.001.004-.001.004-.001.005-.002.004-.001.004-.001.004-.002.004-.002.005-.001.004-.002.004-.002.004-.002z"/><path id="_433980776" class="fil1" d="m2.025 4.989 3.787 3.786-.345-.098L1.681 4.89z"/><path id="_433981064" class="fil1" d="m1.681 4.89 3.786 3.787-.009-.003-.009-.004-.008-.003-.008-.004-.008-.005-.008-.005-.008-.005-.007-.005-3.786-3.787.007.006.008.005.007.005.008.004.009.004.008.004.01.003z"/><path id="_433980608" class="fil1" d="m2.306 4.683 3.787 3.786-.022.075-3.786-3.787z"/><path id="_433980848" class="fil1" d="m2.279 4.309 3.786 3.786-.027.095-3.786-3.786z"/><path id="_433981952" class="fil1" d="m3.56 5.03 3.786 3.787h-.14L3.418 5.03z"/><path id="_433981760" class="fil1" d="M2.455 4.166 6.24 7.952l-.03.105L2.425 4.27z"/><path id="_433981424" class="fil1" d="M2.425 4.27 6.21 8.058l-.021.074-3.787-3.786z"/><path id="_433981328" class="fil1" d="M2.403 4.345 6.19 8.13l-.075-.021L2.33 4.323z"/><path id="_433981520" class="fil1" d="m3.419 5.03 3.786 3.787h-.401L3.017 5.03z"/><path id="_433982000" class="fil1" d="m3.017 5.03 3.787 3.787h-.05L2.968 5.03z"/><path id="_433981688" class="fil1" d="m2.968 5.03 3.786 3.787h-.592L2.376 5.03z"/><path id="_433981712" class="fil1" d="m2.9 3.45 3.786 3.787-.003-.002-3.786-3.787z"/><path id="_433982048" class="fil1" d="m2.896 3.35 3.786 3.786-.003-.003-.002-.002L2.89 3.344l.003.003z"/><path id="_433981928" class="fil1" d="m4.638 5.03 3.787 3.787h-.403L4.236 5.03z"/><path id="_433982192" class="fil1" d="m4.688 5.03 3.787 3.787h-.05L4.638 5.03z"/><path id="_433982456" class="fil1" d="m2.865 3.026 3.787 3.786-.003-.002-.003-.003L2.86 3.021l.002.003z"/><path id="_433982840" class="fil1" d="m2.852 2.915 3.786 3.787-.003-.003-.003-.003L2.846 2.91l.003.003z"/><path id="_433982552" class="fil1" d="m2.847 2.81 3.786 3.786-.004-.002-.004-.003-.003-.003-.003-.003L2.832 2.8l.004.003.003.003.004.002z"/><path id="_433982408" class="fil1" d="m2.848 2.688 3.787 3.786-.003-.002-3.786-3.787z"/><path id="_433982312" class="fil1" d="m5.28 5.03 3.786 3.787h-.591L4.688 5.03z"/><path id="_433982720" class="fil1" d="M4.793 3.653 8.58 7.44v.01l.001.003v.012L4.796 3.677v-.005l-.001-.003V3.656z"/><path id="_433982600" class="fil1" d="m4.823 3.026 3.786 3.786-.002.013-3.786-3.787z"/><path id="_433982168" class="fil1" d="m4.846 2.815 3.786 3.786.003.003.002.003.002.003.001.003.002.003.001.003.002.003v.003l.002.004v.003l.001.004v.003l.001.004v.016l-.002.004v.004l-.002.003-.001.004-.002.003-.002.004-.002.003-.002.003-.003.004-.002.003-.003.002-.003.003-.003.003-3.786-3.787.003-.002.003-.003.003-.003.002-.003.003-.003.002-.003.002-.003.002-.004.001-.003.002-.004.001-.004.001-.004v-.004l.001-.004v-.022l-.001-.004-.001-.003-.002-.003v-.003l-.002-.004-.002-.003-.002-.003-.002-.003-.002-.002z"/><path id="_433982216" class="fil1" d="m4.765 2.366 3.786 3.787.004.004.002.004.003.005.002.004.002.005.001.005.001.006v.005l.001.006v.011l-.002.006-.002.005-.002.006-.002.005-.003.005-.004.004-3.786-3.786.003-.005.003-.004.003-.006.002-.005.002-.005v-.006l.002-.006v-.011l-.001-.006-.001-.005-.001-.005-.002-.005-.002-.005-.003-.004-.003-.005z"/><path id="_433982288" class="fil1" d="M4.792 2.474 8.578 6.26l.003.004.003.004.003.004.002.005.002.004.002.005.001.005v.005l.002.005v.015l-.002.005v.005l-.002.004-.002.005-.002.004-.002.004-3.787-3.787.003-.004.002-.004.001-.004.002-.005v-.004l.002-.005v-.02l-.001-.005-.002-.005-.001-.005-.002-.005-.003-.004-.002-.004-.003-.004z"/><path id="_433983392" class="fil1" d="M4.845 2.592 8.63 6.378l.004.005.003.005.003.005.002.006.002.006.002.006v.027l-.002.003v.004l-.002.003-.001.003-.002.004-.001.003-.002.003-.002.003-.002.002-.002.003-.003.003-.002.002L4.84 2.688l.002-.003.002-.002.003-.003.002-.003.002-.003.002-.003.001-.003.002-.003.001-.003.001-.003.001-.004.001-.003v-.004l.001-.003v-.02l-.002-.006-.002-.006-.002-.006-.003-.005-.004-.005z"/><path id="_433983320" class="fil1" d="M4.858 2.702 8.644 6.49l.003.003.003.004.002.004.003.004.002.004.001.004.002.005.001.004v.005l.001.005V6.55l-.002.004-.001.005-.002.004-.002.004-.002.004-.003.004-.002.003-.003.004-.003.003-.003.003-.004.003-.004.003-.003.002L4.84 2.81l.004-.002.004-.003.003-.003.004-.003.003-.003.003-.004.002-.004.003-.003.002-.004.002-.004.001-.005.002-.004v-.005l.002-.004V2.74l-.001-.005-.001-.005-.002-.004-.002-.004-.002-.005-.002-.004-.002-.003-.003-.004z"/><path id="_435563152" class="fil1" d="M2.327 3.936zm.128.23zm.708-2.14h.002-.002zm1.265-.107-.001.086c.01-.005.006-.082.031-.082.026 0 .073.031.073.07a.069.069 0 0 1-.008.033.072.072 0 0 1 .09.069.069.069 0 0 1-.008.032h.005c.04 0 .073.031.073.07a.069.069 0 0 1-.008.032h.004c.04 0 .073.032.073.071a.07.07 0 0 1-.016.045.07.07 0 0 1 .045.065.07.07 0 0 1-.015.043l.001.003a.07.07 0 0 1 .042.064.069.069 0 0 1-.01.036l.004.012a.071.071 0 0 1 .059.07.07.07 0 0 1-.022.05.07.07 0 0 1 .036.061.07.07 0 0 1-.035.061.07.07 0 0 1-.005.105l-.001.013a.07.07 0 0 1-.012.098l-.002.012a.07.07 0 0 1-.015.101v.008a.07.07 0 0 1-.009.1.07.07 0 0 1-.005.103.07.07 0 0 1-.004.1v.004a.07.07 0 0 1 .002.092.07.07 0 0 1 .003.107l.002.024a.07.07 0 0 1 .012.076.07.07 0 0 1 .02.092.07.07 0 0 1 .016.097v.001a.07.07 0 0 1 .013.092v.004a.07.07 0 0 1 .023.06c.077.05.121.087.15.112.117.104.182.491.251.82H2.376c.028-.135.056-.278.086-.409l-.253-.07-.027.095.05.015.074.021-.021.074-.03.105a.185.185 0 0 1-.23.127l-.344-.099a.185.185 0 0 1-.127-.23l.03-.104.021-.074.074.021.05.015.098-.339-.05-.014-.075-.021.021-.075.03-.104a.185.185 0 0 1 .23-.127l.344.098a.185.185 0 0 1 .128.23l-.03.105-.022.074-.074-.022-.05-.014-.027.095.25.069c.035-.121.075-.217.125-.262.032-.028.085-.07.183-.132a.07.07 0 0 1 .022-.04v-.004a.07.07 0 0 1 .013-.092.07.07 0 0 1 .017-.098.069.069 0 0 1 .02-.092.069.069 0 0 1 .011-.076l.002-.024a.07.07 0 0 1 .003-.107.07.07 0 0 1 .002-.092v-.003a.07.07 0 0 1-.004-.101.07.07 0 0 1-.005-.103.07.07 0 0 1-.008-.1l-.001-.008a.07.07 0 0 1-.015-.1l-.002-.013a.07.07 0 0 1-.012-.098l-.001-.013a.07.07 0 0 1-.005-.105.07.07 0 0 1-.035-.06.07.07 0 0 1 .036-.062.07.07 0 0 1-.022-.05c0-.035.026-.064.06-.07l.003-.012a.069.069 0 0 1-.01-.036.07.07 0 0 1 .042-.064v-.003a.07.07 0 0 1-.014-.043.07.07 0 0 1 .045-.065.07.07 0 0 1-.016-.045.072.072 0 0 1 .077-.07.069.069 0 0 1-.008-.033.072.072 0 0 1 .078-.07.069.069 0 0 1-.008-.032.072.072 0 0 1 .088-.07.152.152 0 0 0-.005.035c.009-.026.049-.062.072-.062.025 0 .022.002.03.006v-.01c0-.022.046-.071.073-.071.027 0 .028.004.04.011V1.93c0-.02.042-.07.072-.07.03 0 .039.008.052.021h.001c.004-.036.042-.063.072-.063.031 0 .046.011.059.029a.075.075 0 0 1 .07-.05.07.07 0 0 1 .064.039.067.067 0 0 1 .065-.04c.006 0 .01.001.016.003a.054.054 0 0 1 .016-.003c.034 0 .053.016.065.04a.07.07 0 0 1 .064-.038c.03 0 .06.02.07.049a.065.065 0 0 1 .059-.029c.03 0 .068.027.072.063.014-.013.023-.021.053-.021s.073.05.073.07v.004c.011-.007.012-.011.039-.011s.073-.025.073-.004z"/></g></g><path d="M3.413 0a3.413 3.413 0 1 1 0 6.827 3.413 3.413 0 0 1 0-6.827z" style="fill:none"/><path class="fil3" d="M3.538 3.713c-.642.281-.835.431-.91.498-.118.104-.183.491-.252.82H5.28c-.07-.329-.134-.716-.251-.82-.076-.067-.262-.213-.904-.494l-.587-.004z"/><path d="M3.538 3.713c-.642.281-.835.431-.91.498-.118.104-.183.491-.252.82H5.28c-.07-.329-.134-.716-.251-.82-.076-.067-.262-.213-.904-.494l-.587-.004z" style="fill:#212121"/><path d="M3.83 4.018s-.435.104-.435.13c0 .026.165.882.165.882h.59l.068-.878-.388-.134z" style="fill:#c7b7b7"/><path class="fil6" d="M3.516 3.722v.141l.136 1.167h-.233l-.256-.52.244-.162-.298-.14.274-.426z"/><path d="M4.14 3.375v.527a.48.48 0 0 1-.622 0v-.527c0-.285.623-.285.623 0z" style="fill:#d9b9a9"/><path class="fil8" d="M4.14 3.375v.352a.722.722 0 0 1-.31.1.722.722 0 0 1-.312-.1v-.352c0-.285.623-.285.623 0z"/><path class="fil6" d="M4.14 3.723v.14L4.003 5.03h.233l.256-.52-.245-.162.299-.14-.244-.413z"/><path class="fil9" d="m3.516 3.628-.027.106.076.552.265-.268z"/><path d="m3.694 4.162.075.117h.117l.076-.117-.132-.144-.136.144z" style="fill:#a61e1e"/><path style="fill:#c62828" d="m3.77 4.28-.108.75h.332l-.108-.75z"/><path class="fil9" d="m4.14 3.628.021.104-.072.56-.26-.274z"/><path class="fil12" d="M2.968 5.03h.05c-.003-.22-.003-.38-.003-.38s-.022.166-.047.38zM4.688 5.03h-.05c.003-.22.003-.38.003-.38s.022.166.047.38z"/><path class="fil3" d="m4.424 2.622-.083-.153-.044.016h-.975l-.046-.018-.06.166c-.087-.011-.041-.015-.086.073a.27.27 0 0 0 .027.289c.027.034-.001.042.04.056.03.097.07.206.12.308.058.12.132.232.229.308a.337.337 0 0 0 .138.065c.047.01.095.013.145.013.05 0 .098-.002.143-.012.05-.01.095-.03.137-.063a.87.87 0 0 0 .232-.309c.05-.103.09-.213.12-.31.042-.014.043-.04.07-.075a.268.268 0 0 0 .014-.311c-.013-.02.007-.038-.01-.053l-.11.01z"/><path class="fil8" d="M4.123 3.412a1.218 1.218 0 0 1-.587 0c.054.186.483.19.587 0z"/><path d="M4.422 2.832a.756.756 0 0 1 .003.02.07.07 0 0 0 .012.094v.003a.07.07 0 0 0 .002.087v.008a.07.07 0 0 0-.003.078l-.002.014a.07.07 0 0 0-.01.09l-.002.011a.07.07 0 0 0-.016.084L4.4 3.35a.07.07 0 0 0-.014.052l-.002.007a.07.07 0 0 0-.041.064c0 .012.002.022.007.032a.071.071 0 0 0-.052.068c0 .01.001.018.005.026a.408.408 0 0 1-.005.008.07.07 0 0 0-.04.092l-.002.007a.071.071 0 0 0-.049.067c0 .011.003.022.008.031a.071.071 0 0 0-.053.068.07.07 0 0 0 .036.062.07.07 0 0 0-.028.123l-.003.012a.07.07 0 0 0-.018.117l-.002.014a.07.07 0 0 0-.04.064.07.07 0 0 0 .014.043v.005c0 .039.033.07.073.07.04 0 .072-.03.073-.068l.015.001a.072.072 0 0 0 .072-.058.074.074 0 0 0 .1-.029.074.074 0 0 0 .101-.022h.007a.074.074 0 0 0 .09-.015.209.209 0 0 0 .024-.007.075.075 0 0 0 .09-.033.074.074 0 0 0 .04.012c.04 0 .073-.032.073-.071a.07.07 0 0 0-.023-.052v-.004a.07.07 0 0 0-.013-.092.07.07 0 0 0-.017-.098.069.069 0 0 0-.02-.092.069.069 0 0 0-.011-.076l-.002-.024a.07.07 0 0 0-.003-.107.07.07 0 0 0-.002-.092v-.003a.07.07 0 0 0 .004-.101.07.07 0 0 0 .005-.103.07.07 0 0 0 .008-.1l.001-.008a.07.07 0 0 0 .015-.1l.002-.013a.07.07 0 0 0 .012-.098l.001-.013a.07.07 0 0 0 .005-.105.07.07 0 0 0 .035-.06.07.07 0 0 0-.036-.062.07.07 0 0 0 .022-.05.071.071 0 0 0-.06-.07L4.8 2.556a.069.069 0 0 0 .01-.036.07.07 0 0 0-.042-.064v-.003a.07.07 0 0 0 .014-.043.07.07 0 0 0-.045-.065.07.07 0 0 0 .016-.045.072.072 0 0 0-.077-.07.069.069 0 0 0 .008-.033.072.072 0 0 0-.078-.07.069.069 0 0 0 .008-.032.072.072 0 0 0-.09-.069.069.069 0 0 0 .008-.032c0-.04-.047-.071-.073-.071-.025 0-.022.077-.031.082v-.086c0-.022-.045.004-.072.004-.027 0-.028.004-.04.011V1.93c0-.02-.042-.07-.072-.07-.03 0-.039.008-.052.021H4.19c-.004-.036-.042-.063-.072-.063a.065.065 0 0 0-.059.029.075.075 0 0 0-.07-.05.07.07 0 0 0-.064.039.067.067 0 0 0-.065-.04c-.006 0-.01.001-.016.003a.054.054 0 0 0-.016-.003.067.067 0 0 0-.065.04.07.07 0 0 0-.064-.038c-.03 0-.06.02-.07.049a.065.065 0 0 0-.059-.029c-.03 0-.068.027-.072.063-.014-.013-.023-.021-.053-.021s-.073.05-.073.07v.004c-.011-.007-.012-.011-.039-.011s-.073.05-.073.07c0 .022 0 .008.001.012-.01-.005-.006-.007-.031-.007-.026 0-.073.045-.073.07 0 .026.003-.052.008-.042a.072.072 0 0 0-.09.069c0 .011.003.022.008.032h-.005a.072.072 0 0 0-.073.07c0 .012.003.023.008.032h-.005a.072.072 0 0 0-.072.071.07.07 0 0 0 .016.045.07.07 0 0 0-.045.065c0 .016.006.031.015.043l-.001.003a.07.07 0 0 0-.042.064c0 .014.003.026.01.036l-.004.012a.071.071 0 0 0-.059.07c0 .02.009.037.022.05a.07.07 0 0 0-.036.061.07.07 0 0 0 .035.06.07.07 0 0 0 .005.106l.001.013a.07.07 0 0 0 .012.098l.002.012a.07.07 0 0 0 .015.101v.008a.07.07 0 0 0 .009.1.07.07 0 0 0 .005.103.07.07 0 0 0 .004.1v.004a.07.07 0 0 0-.002.092.07.07 0 0 0-.003.107l-.002.024a.07.07 0 0 0-.012.076.07.07 0 0 0-.02.092.07.07 0 0 0-.016.097v.001a.07.07 0 0 0-.013.092v.004a.07.07 0 0 0-.023.052c0 .039.032.07.072.07a.074.074 0 0 0 .04-.011.073.073 0 0 0 .09.033.209.209 0 0 0 .025.007.073.073 0 0 0 .09.014l.007.001a.074.074 0 0 0 .102.022.074.074 0 0 0 .099.029.072.072 0 0 0 .087.057.072.072 0 0 0 .073.068.072.072 0 0 0 .073-.075.07.07 0 0 0 .015-.043.07.07 0 0 0-.041-.064l-.002-.014a.07.07 0 0 0-.018-.117l-.003-.011a.07.07 0 0 0-.028-.124.07.07 0 0 0 .036-.062.071.071 0 0 0-.053-.068.069.069 0 0 0 .008-.031c0-.031-.02-.057-.049-.067l-.002-.007a.07.07 0 0 0-.04-.092.428.428 0 0 1-.005-.008.069.069 0 0 0 .005-.026.071.071 0 0 0-.052-.068.069.069 0 0 0 .007-.032.07.07 0 0 0-.041-.064l-.002-.007a.07.07 0 0 0-.014-.052 1.315 1.315 0 0 1-.007-.028.069.069 0 0 0-.015-.084 1.28 1.28 0 0 1-.002-.01.07.07 0 0 0-.01-.09l-.002-.015a.069.069 0 0 0-.003-.078v-.008a.07.07 0 0 0 .002-.087v-.003a.07.07 0 0 0 .012-.094.756.756 0 0 1 .003-.02.07.07 0 0 0 .047-.066.07.07 0 0 0-.014-.042.072.072 0 0 0 .066-.07.069.069 0 0 0-.004-.025c.01.005.02.007.032.007a.072.072 0 0 0 .072-.078.074.074 0 0 0 .118-.039.073.073 0 0 0 .063.037.073.073 0 0 0 .07-.051.073.073 0 0 0 .067.041.073.073 0 0 0 .061-.032c.013.02.036.032.061.032.03 0 .055-.017.067-.041.008.03.036.05.07.05a.073.073 0 0 0 .063-.036.074.074 0 0 0 .118.04v.006c0 .04.032.071.072.071a.074.074 0 0 0 .032-.007.069.069 0 0 0-.004.025c0 .037.029.067.066.07a.07.07 0 0 0-.014.042c0 .03.02.056.047.066z" style="fill:#b3b3b3"/><path style="fill:#546e7a;fill-rule:nonzero" d="m2.208 4.392 1.763.49-.04.149-1.764-.49z"/><path style="fill:#36211d;fill-rule:nonzero" d="m1.944 4.052.303.087.074.021-.021.075-.14.487-.02.074-.075-.022-.304-.087-.074-.02.021-.075.14-.487.021-.074z"/><path class="fil16" d="m1.68 4.503.552.159.074.021-.021.074-.03.105a.185.185 0 0 1-.23.127l-.344-.099a.185.185 0 0 1-.127-.23l.03-.104.021-.074.074.021z"/><path style="fill:none;fill-rule:nonzero" d="M2.327 3.936"/><path class="fil16" d="m2.329 4.323-.553-.158-.074-.021.021-.075.03-.104a.185.185 0 0 1 .23-.127l.344.098a.185.185 0 0 1 .128.23l-.03.105-.022.074-.074-.022z"/></g></svg>