<svg xmlns="http://www.w3.org/2000/svg" viewBox="0 0 512 512"><defs><style>.cls-4{fill:#db1b1b}.cls-5{fill:#bc1b1b}.cls-6{fill:#f6c752}.cls-8{fill:#32314b}.cls-9{fill:#e5a82e}.cls-10{fill:#cc9129}</style></defs><circle cx="256" cy="256" r="256" style="fill:#27273d" id="BULINE"/><g id="Icons"><path d="M407.43 422.45H175.57a26.75 26.75 0 0 1-26.75-26.75V112.79H107.4a7.59 7.59 0 0 1-7.58-7.59V90a23.59 23.59 0 0 1 23.58-23.55h252.84A23.59 23.59 0 0 1 399.82 90v288.75a60 60 0 0 0 7.55 29.12l4.2 7.54a4.74 4.74 0 0 1-4.14 7.04z" style="fill:#fff"/><path d="M149.07 90v22.75h-41.66a7.59 7.59 0 0 1-7.59-7.59V90a23.41 23.41 0 0 1 23.23-23.58h2.8A23.41 23.41 0 0 1 149.07 90z" style="fill:#cecccc"/><path class="cls-4" d="M297.91 395.69v67.42a5.52 5.52 0 0 1-8.06 4.9l-14.15-7.33a5.49 5.49 0 0 0-5.08 0L256.47 468a5.52 5.52 0 0 1-8.06-4.9v-67.41z"/><path class="cls-4" d="M232.16 385.69c0 6.1-6.48 13.45-4.28 18.76 2.28 5.5 12.14 6.09 16.29 10.23s4.73 14 10.23 16.29c5.31 2.2 12.66-4.28 18.76-4.28s13.45 6.48 18.76 4.28c5.5-2.28 6.09-12.14 10.23-16.29s14-4.73 16.29-10.23c2.2-5.31-4.28-12.66-4.28-18.76s6.48-13.45 4.28-18.76c-2.28-5.5-12.14-6.09-16.29-10.23s-4.73-14-10.23-16.29c-5.31-2.2-12.66 4.28-18.76 4.28s-13.45-6.48-18.76-4.28c-5.5 2.28-6.09 12.14-10.23 16.29s-14 4.73-16.29 10.23c-2.2 5.31 4.28 12.66 4.28 18.76z"/><path class="cls-5" d="M297.91 422.62v10c-1.46 3.6-3 7.1-6 8.35-5.3 2.2-12.65-4.28-18.75-4.28s-13.46 6.48-18.76 4.31c-3-1.24-4.54-4.74-6-8.33v-10c1.45 3.59 3 7.09 6 8.33 5.3 2.2 12.65-4.28 18.76-4.28s13.45 6.48 18.75 4.28c3-1.28 4.54-4.78 6-8.38z"/><path class="cls-5" d="M272.16 420.18a66.05 66.05 0 0 0 2.95 6.7 10.91 10.91 0 0 0-1.95-.19c-6.1 0-13.45 6.48-18.76 4.28-5.5-2.28-6.09-12.14-10.23-16.29s-14-4.73-16.29-10.23c-2.2-5.31 4.28-12.66 4.28-18.76s-6.48-13.45-4.28-18.76c2.28-5.5 12.14-6.09 16.29-10.23s4.73-14 10.23-16.29c5.31-2.2 12.66 4.28 18.76 4.28a10.91 10.91 0 0 0 1.95-.19 66.05 66.05 0 0 0-2.95 6.7 17.18 17.18 0 0 1-3.24 5.5c-4.15 4.14-14 4.73-16.29 10.23-2.2 5.31 4.28 12.66 4.28 18.76s-6.48 13.45-4.28 18.76c2.28 5.5 12.14 6.09 16.29 10.23a17.18 17.18 0 0 1 3.24 5.5z"/><circle class="cls-6" cx="273.16" cy="385.69" r="34.5"/><path d="M268.92 414.68a17.18 17.18 0 0 1 3.24 5.5 34.5 34.5 0 0 1 0-69 17.18 17.18 0 0 1-3.24 5.5c-4.15 4.14-14 4.73-16.29 10.23-2.2 5.31 4.28 12.66 4.28 18.76s-6.48 13.45-4.28 18.76c2.28 5.57 12.14 6.11 16.29 10.25z" style="fill:#f7bb38"/><path class="cls-8" d="M310.07 216.05h-73.82a5 5 0 0 1 0-10h73.82a5 5 0 0 1 0 10zM346 255.38H200.28a5 5 0 1 1 0-10H346a5 5 0 0 1 0 10zM346 279.72H200.28a5 5 0 1 1 0-10H346a5 5 0 0 1 0 10zM346 304.05H200.28a5 5 0 0 1 0-10H346a5 5 0 0 1 0 10z"/><path class="cls-6" d="m317.66 144.92-12.9-47v-.11a.36.36 0 0 1 0-.09l-.06-.09-.06-.09-.08-.08-.07-.07a.47.47 0 0 0-.09-.06l-.09-.06h-1.06l-.09.05-.09.07a.46.46 0 0 0-.07.07.6.6 0 0 0-.08.08l-.06.08-.06.1a.36.36 0 0 1 0 .09v.11c0 .04 0 0 0 0l-12.9 47a1.11 1.11 0 0 0 .78 1.36 1 1 0 0 0 .29 0 1.12 1.12 0 0 0 1.08-.81l11.82-43.12 11.83 43.12a1.1 1.1 0 0 0 1.07.81 1 1 0 0 0 .29 0 1.11 1.11 0 0 0 .6-1.36z"/><path class="cls-9" d="M289.79 144.69h27.8a1.45 1.45 0 0 1 1.45 1.45v3.09a13.1 13.1 0 0 1-13.1 13.1h-4.48a13.1 13.1 0 0 1-13.1-13.1v-3.09a1.45 1.45 0 0 1 1.43-1.45z"/><path class="cls-10" d="M305.9 162.33h-4.45a13.09 13.09 0 0 1-13.1-13.1v-3.09a1.44 1.44 0 0 1 1.44-1.45h4.45a1.45 1.45 0 0 0-1.45 1.45v3.09a13.1 13.1 0 0 0 13.11 13.1z"/><path class="cls-6" d="m256.6 144.92-12.9-47v-.11l-.05-.09a.26.26 0 0 0 0-.09.31.31 0 0 0-.07-.09l-.07-.08-.08-.07a.24.24 0 0 0-.08-.06.21.21 0 0 0-.1-.06.25.25 0 0 0-.09 0h-.96l-.09.05-.09.07a.23.23 0 0 0-.07.07.3.3 0 0 0-.08.08l-.06.08-.06.1v.09a.36.36 0 0 0 0 .11l-12.9 47a1.1 1.1 0 0 0 .78 1.36.92.92 0 0 0 .29 0 1.1 1.1 0 0 0 1.07-.81l11.83-43.12 11.82 43.12a1.12 1.12 0 0 0 1.07.81 1 1 0 0 0 .3 0 1.11 1.11 0 0 0 .59-1.36z"/><path class="cls-10" d="M292.12 171.23h-4v-4.95a2.58 2.58 0 0 0-2.58-2.57h-24.87a2.58 2.58 0 0 0-2.58 2.57v4.95h-4.31a3.11 3.11 0 0 0-2.81 3.11v2.94a1.73 1.73 0 0 0 1.73 1.72h40.82a1.72 1.72 0 0 0 1.72-1.72v-2.94a3.12 3.12 0 0 0-3.12-3.11z"/><path class="cls-9" d="M307.37 96h-30.7v-8.75a3.56 3.56 0 1 0-7.12 0V96h-30.7a2.21 2.21 0 1 0 0 4.41h30.7v63.32h7.12v-63.34h30.7a2.21 2.21 0 1 0 0-4.41z"/><circle class="cls-6" cx="273.11" cy="98.18" r="7.12"/><circle cx="273.11" cy="98.18" r="4.67" style="fill:#ffe5a4"/><path class="cls-9" d="M228.73 144.69h27.8a1.45 1.45 0 0 1 1.45 1.45v3.09a13.1 13.1 0 0 1-13.1 13.1h-4.48a13.1 13.1 0 0 1-13.1-13.1v-3.09a1.45 1.45 0 0 1 1.45-1.45z"/><path class="cls-10" d="M244.83 162.33h-4.44a13.1 13.1 0 0 1-13.11-13.1v-3.09a1.45 1.45 0 0 1 1.45-1.45h4.45a1.45 1.45 0 0 0-1.45 1.45v3.09a13.1 13.1 0 0 0 13.1 13.1z"/></g></svg>