<svg xmlns="http://www.w3.org/2000/svg" viewBox="0 0 64 64"><g data-name="12-Freedom"><path style="fill:#795799" d="M34 59h10v4H34zM20 59h10v4H20z"/><path d="M32 48.64v4.15a3.993 3.993 0 0 1-.67 2.22L30 57v2H20v-2l-4-3-9.66-15.45a2.29 2.29 0 0 1-.34-1.2v-.1a2.25 2.25 0 0 1 3.6-1.8L26 48l-5.26-4.53a1.951 1.951 0 0 1 2.34-3.12l7.2 5.01A4 4 0 0 1 32 48.64z" style="fill:#ffd1d1"/><path d="M58 37.25v.1a2.29 2.29 0 0 1-.34 1.2L48 54l-4 3v2H34v-2l-1.33-1.99a3.993 3.993 0 0 1-.67-2.22v-4.15a4 4 0 0 1 1.72-3.28l7.2-5.01a1.926 1.926 0 0 1 1.12-.35 1.947 1.947 0 0 1 1.22 3.47L38 48l16.4-12.55a2.25 2.25 0 0 1 3.6 1.8z" style="fill:#ffd1d1"/><path d="M35 11.82A51.542 51.542 0 0 1 28 19c-2.98 0-3.47-1.78-4.65-3.21C27.17 13.24 30 1 30 1s4.88 5.86 5 10.82z" style="fill:#e0e0e0"/><path d="M35 11.82c2.17-2.77 4-5.96 4-8.82 0 0 4 1 4 10a12.645 12.645 0 0 1-2.07 6.96L41 20l17-7c0 7-2 10-2 10h-8a20.882 20.882 0 0 1-19 12c-11 0-14-13-14-13h-3l1-2s0-6 6-6a5 5 0 0 1 4.35 1.79C24.53 17.22 25.02 19 28 19a51.542 51.542 0 0 0 7-7.18z" style="fill:#e0e0e0"/><path d="M20.891 41.594a1.988 1.988 0 0 1-.6-.647 1.932 1.932 0 0 0 .451 2.523L26 48a4.364 4.364 0 0 0-1.515-3.306z" style="fill:#ffb5b5"/><path d="M30.5 49a1.5 1.5 0 0 0-1.5 1.5v1.556a4.012 4.012 0 0 1-.422 1.789l-.472.944A4 4 0 0 1 24.528 57a1.742 1.742 0 0 1-.967-.293L18 53 6.547 36.774a1.113 1.113 0 0 1-.2-.712A2.228 2.228 0 0 0 6 37.25v.1a2.29 2.29 0 0 0 .34 1.2L16 54l4 3v2h10v-2l1.33-1.99a3.993 3.993 0 0 0 .67-2.22V50.5a1.5 1.5 0 0 0-1.5-1.5z" style="fill:#ffb5b5"/><path d="M57.652 36.062a1.113 1.113 0 0 1-.2.712L46 53l-5.561 3.707a1.742 1.742 0 0 1-.967.293 4 4 0 0 1-3.578-2.211l-.472-.944A4.012 4.012 0 0 1 35 52.056V50.5a1.5 1.5 0 0 0-3 0v2.29a3.993 3.993 0 0 0 .67 2.22L34 57v2h10v-2l4-3 9.66-15.45a2.29 2.29 0 0 0 .34-1.2v-.1a2.228 2.228 0 0 0-.348-1.188z" style="fill:#ffb5b5"/><path d="m43.109 41.594-3.594 3.1A4.364 4.364 0 0 0 38 48l5.26-4.53a1.932 1.932 0 0 0 .451-2.523 1.988 1.988 0 0 1-.602.647z" style="fill:#ffb5b5"/><path d="M27 59h-7v2h5a2 2 0 0 0 2-2z" style="fill:#9d71c7"/><path d="M25 61h-5v2h10v-4h-3a2 2 0 0 1-2 2zM37 59h-3v4h10v-2h-5a2 2 0 0 1-2-2z" style="fill:#795799"/><path d="M37 59a2 2 0 0 0 2 2h5v-2z" style="fill:#9d71c7"/><path d="M28.871 15.129a1.988 1.988 0 0 1-2.994-.182 4.132 4.132 0 0 1-.611-1.291 7.337 7.337 0 0 1-1.916 2.134C24.53 17.22 25.02 19 28 19a51.542 51.542 0 0 0 7-7.18 10.13 10.13 0 0 0-.394-2.426zM41 20l-.07-.04A17.738 17.738 0 0 1 34 26a2.426 2.426 0 0 0 3.658 2.089C40.275 26.55 43.431 24.275 44 22l13.857-5.939c.087-.923.143-1.935.143-3.061z" style="fill:#d6d6d6"/><path d="M23 21a7.161 7.161 0 0 0 5-2c-2.98 0-3.47-1.78-4.65-3.21A5 5 0 0 0 19 14a5.52 5.52 0 0 0-4.615 2.007C20 16 20 21 23 21z" style="fill:#f0f0f0"/><path d="M16 19a2 2 0 0 1 4 0z" style="fill:#606875"/></g></svg>