<svg xmlns="http://www.w3.org/2000/svg" xmlns:xlink="http://www.w3.org/1999/xlink" viewBox="0 0 48 48"><defs><linearGradient id="a" x1="23" y1="41.07" x2="23" y2="-2.86" gradientTransform="translate(.99 2.43)" gradientUnits="userSpaceOnUse"><stop offset="0" stop-color="#fff"/><stop offset=".52" stop-color="#cce2e6"/><stop offset="1" stop-color="#8fa1bb"/></linearGradient><linearGradient id="e" x1="31.4" y1="41.77" x2="31.4" y2="2.8" xlink:href="#a"/><linearGradient id="b" x1="21.73" y1="36.76" x2="68.6" y2="34.89" gradientUnits="userSpaceOnUse"><stop offset="0" stop-color="#273a9b"/><stop offset=".56" stop-color="#202f65"/><stop offset="1" stop-color="#021e2f"/></linearGradient><linearGradient id="f" x1="75.48" y1="39.45" x2="-80.52" y2="26.7" xlink:href="#b"/><linearGradient id="g" x1="25.59" y1="9.31" x2="-1.29" y2="15.31" xlink:href="#b"/><linearGradient id="h" x1="77.31" y1="17.11" x2="-78.69" y2="4.36" xlink:href="#b"/><linearGradient id="c" x1="34.75" y1="59.17" x2="34.75" y2="-17.05" gradientUnits="userSpaceOnUse"><stop offset="0" stop-color="#27e9de"/><stop offset=".52" stop-color="#03a4ec"/><stop offset="1" stop-color="#2547a8"/></linearGradient><linearGradient id="i" x1="29.19" y1="40.4" x2="39.06" y2=".03" xlink:href="#c"/><linearGradient id="d" x1="6.48" y1="62.17" x2="6.48" y2="-2.71" gradientTransform="matrix(-1 0 0 1 19.75 0)" gradientUnits="userSpaceOnUse"><stop offset="0" stop-color="#f3c57a"/><stop offset=".49" stop-color="#f39369"/><stop offset="1" stop-color="#e94867"/></linearGradient><linearGradient id="j" x1="39.79" y1="33.04" x2="-14.83" y2="33.92" xlink:href="#d"/></defs><circle cx="23.99" cy="24" r="16.81" style="fill:url(#a)"/><path d="M24 7.19a16.81 16.81 0 0 1 0 33.61" style="fill:url(#e)"/><path d="m35.72 40 5.79-5.79a.5.5 0 0 0-.32-.86l-10.62-.65a.87.87 0 0 0-.66 1.48z" style="fill:url(#b)"/><path d="M41.52 33.3 36 33a14.9 14.9 0 0 1-23.08 1.1 14.7 14.7 0 0 1-3.62-7.51 3 3 0 0 0-3-2.59 3 3 0 0 0-3 3.45 21 21 0 0 0 32.24 14.09 20.77 20.77 0 0 0 6.63-7 .8.8 0 0 0-.65-1.24z" style="fill:url(#f)"/><path d="m12.28 8-5.79 5.83a.5.5 0 0 0 .32.86l10.62.65a.87.87 0 0 0 .66-1.48z" style="fill:url(#g)"/><path d="M6.48 14.7 12 15a14.9 14.9 0 0 1 23.08-1.1 14.7 14.7 0 0 1 3.62 7.51 3 3 0 0 0 3 2.59 3 3 0 0 0 3-3.45A21 21 0 0 0 12.46 6.46a20.77 20.77 0 0 0-6.63 7 .8.8 0 0 0 .65 1.24z" style="fill:url(#h)"/><path d="M43.51 18.84a2.6 2.6 0 0 1 .28-1.76A9.42 9.42 0 1 0 27.1 8.35l-2.54 5.4a.88.88 0 0 0 .8 1.25h.25a.55.55 0 0 1 .55.55V18A3.88 3.88 0 0 0 30 21.86a2.57 2.57 0 0 1 2.54 2.2A3.42 3.42 0 0 0 36 27h2.06a5.8 5.8 0 0 0 5.7-6.85z" style="fill:url(#c)"/><path d="M43.81 17a20.92 20.92 0 0 0-6.21-9A20.61 20.61 0 0 0 31 4.22a9.48 9.48 0 0 0-3.9 4.13l-.43.91a14.93 14.93 0 0 1 8.43 4.65 14.7 14.7 0 0 1 3.62 7.51 3 3 0 0 0 4.65 2.08 5.75 5.75 0 0 0 .38-3.35l-.24-1.31a2.6 2.6 0 0 1 .28-1.76z" style="fill:url(#i)"/><path d="M4.51 36.84a2.6 2.6 0 0 0-.28-1.76 9.42 9.42 0 1 1 16.69-8.73l2.54 5.4a.88.88 0 0 1-.8 1.25h-.25a.56.56 0 0 0-.55.55V36A3.88 3.88 0 0 1 18 39.86a2.57 2.57 0 0 0-2.54 2.2A3.42 3.42 0 0 1 12 45h-2a5.88 5.88 0 0 1-5.79-7z" style="fill:url(#d)"/><path d="M10.4 40a20.54 20.54 0 0 0 4.72 3 3.39 3.39 0 0 0 .3-1A2.57 2.57 0 0 1 18 39.86a3.86 3.86 0 0 0 2.8-1.21 15 15 0 0 1-7.88-4.56 14.7 14.7 0 0 1-3.62-7.51 3 3 0 0 0-3-2.59 3 3 0 0 0-.9.15 9.34 9.34 0 0 0-2 3.66 20.87 20.87 0 0 0 7 12.2z" style="fill:url(#j)"/></svg>